# xmcd
#
# Track frame offsets: 
#        150
#        19685
#        40622
#        54241
#        72126
#        85240
#        100313
#        115543
#        131090
#        143748
#        160146
#        172599
#        190438
#        206453
#        217665
#        232862
#        248762
#        264110
#        278657
#        297357
#
# Disc length: 4173 seconds
#
# Revision: 0
# Processed by: cddbd v1.5.2PL0 Copyright (c) Steve Scherf et al.
# Submitted via: ExactAudioCopy v0.99pb5
#
DISCID=01104b14
DTITLE=Norah Jones - Wish I Could
DYEAR=1900
DGENRE=Blues
TTITLE0=Wish I Could
TTITLE1=Sinkin' Soon
TTITLE2=The Sun Doesn't Like You
TTITLE3=Until The End
TTITLE4=Not My Friend
TTITLE5=Thinking About You
TTITLE6=Broken
TTITLE7=My Dear Country
TTITLE8=Wake Me Up
TTITLE9=Be My Somebody
TTITLE10=Little Room
TTITLE11=Rosie's Lullaby
TTITLE12=Not Too Late
TTITLE13=2 Men
TTITLE14=Sunrise
TTITLE15=What Am I To You
TTITLE16=Those Sweet Words
TTITLE17=Carnival Town
TTITLE18=In The Morning
TTITLE19=Be Here To Love Me
EXTD=
EXTT0=
EXTT1=
EXTT2=
EXTT3=
EXTT4=
EXTT5=
EXTT6=
EXTT7=
EXTT8=
EXTT9=
EXTT10=
EXTT11=
EXTT12=
EXTT13=
EXTT14=
EXTT15=
EXTT16=
EXTT17=
EXTT18=
EXTT19=
PLAYORDER=
